<svg xmlns="http://www.w3.org/2000/svg" style="display: none;"><symbol id="close" viewBox="0 0 365.696 365.696"><title>close</title><path d="m243.1875 182.859375 113.132812-113.132813c12.5-12.5 12.5-32.765624 0-45.246093l-15.082031-15.082031c-12.503906-12.503907-32.769531-12.503907-45.25 0l-113.128906 113.128906-113.132813-113.152344c-12.5-12.5-32.765624-12.5-45.246093 0l-15.105469 15.082031c-12.5 12.503907-12.5 32.769531 0 45.25l113.152344 113.152344-113.128906 113.128906c-12.503907 12.503907-12.503907 32.769531 0 45.25l15.082031 15.082031c12.5 12.5 32.765625 12.5 45.246093 0l113.132813-113.132812 113.128906 113.132812c12.503907 12.5 32.769531 12.5 45.25 0l15.082031-15.082031c12.5-12.503906 12.5-32.769531 0-45.25zm0 0"/></symbol><symbol id="up-arrow" viewBox="0 0 492 492"><title>up-arrow</title><path d="M442.627,185.388L265.083,7.844C260.019,2.78,253.263,0,245.915,0c-7.204,0-13.956,2.78-19.02,7.844L49.347,185.388 c-10.488,10.492-10.488,27.568,0,38.052l16.12,16.128c5.064,5.06,11.82,7.844,19.028,7.844c7.204,0,14.192-2.784,19.252-7.844 l103.808-103.584v329.084c0,14.832,11.616,26.932,26.448,26.932h22.8c14.832,0,27.624-12.1,27.624-26.932V134.816l104.396,104.752 c5.06,5.06,11.636,7.844,18.844,7.844s13.864-2.784,18.932-7.844l16.072-16.128C453.163,212.952,453.123,195.88,442.627,185.388z"/></symbol><symbol id="c-hot" viewBox="0 0 364 364"><title>c-hot</title><path d="M328.6,230.1c5.2-16.1,29.6-29.8,29.6-47.6c0-17.8-24.3-31.6-29.6-47.6c-5.4-16.7,6-42-4.1-55.9 c-10.2-14-37.9-10.9-52-21.1c-13.9-10.1-19.5-37.5-36.1-42.9c-16.1-5.2-36.6,13.5-54.5,13.5s-38.4-18.7-54.5-13.5 c-16.7,5.4-22.3,32.8-36.1,42.9c-14,10.2-41.8,7.1-52,21.1c-10.1,13.9,1.3,39.3-4.1,55.9c-5.2,16.1-29.6,29.8-29.6,47.6 c0,17.8,24.3,31.6,29.6,47.6c5.4,16.7-6,42.1,4.1,55.9c10.2,14,37.9,10.9,52,21.1c13.9,10.1,19.5,37.5,36.1,42.9 c16.1,5.2,36.6-13.5,54.5-13.5s38.4,18.7,54.5,13.5c16.7-5.4,22.3-32.8,36.1-42.9c14-10.2,41.8-7.1,52-21.1 C334.6,272.2,323.2,246.8,328.6,230.1z M210.7,272c18.3-35.6,4.7-83.5-27-105.7c2.1,9.5-0.5,34.4-14.6,50 c3.2-16.1-4.8-26.5-4.8-26.5s-2.6,14.6-12.7,29.4c-9.2,13.5-15.6,27.8-3.6,52.8c-38.2-21.5-48.3-41.9-42.5-69.7 c4.2-20.6,19.9-37.3,21.3-57.8c5.9,10.8,6.6,18.6,7.3,29.9c18.9-23.1,38.5-54.1,34.2-82.4c0,0,35.8,11.3,50.3,66.2 c8.5-7.6,7.8-23.3,3.5-32.6C234.9,134.8,307.8,217,210.7,272z"/></symbol></svg>